<?xml version="1.0" encoding="UTF-8" standalone="no"?>
<!DOCTYPE svg PUBLIC "-//W3C//DTD SVG 1.1//EN" "http://www.w3.org/Graphics/SVG/1.1/DTD/svg11.dtd">
<svg width="100%" height="100%" viewBox="0 0 638 638" version="1.1" xmlns="http://www.w3.org/2000/svg" xmlns:xlink="http://www.w3.org/1999/xlink" xml:space="preserve" xmlns:serif="http://www.serif.com/" style="fill-rule:evenodd;clip-rule:evenodd;stroke-linecap:round;stroke-linejoin:round;stroke-miterlimit:1.5;">
    <g transform="matrix(1,0,0,1,-695.494811,0)">
        <clipPath id="_clip1">
            <rect id="Artboard1" x="-512" y="-511.938" width="1661.795" height="1661.795"/>
        </clipPath>
        <g clip-path="url(#_clip1)">
            <g transform="matrix(1,-0,-0,1,695.494811,-0)">
            </g>
        </g>
        <g id="Artboard2" transform="matrix(0.560888,0,0,0.677255,-523.624514,-315.530826)">
            <rect x="2173.553" y="465.897" width="1137.118" height="941.736" style="fill:none;"/>
            <g transform="matrix(1,0,0,1,253.995194,21.588622)">
                <g transform="matrix(1.12579,-0,0,2.151587,1877.596266,-393.730474)">
                    <rect x="312.483" y="424.928" width="391.898" height="391.898" style="fill:none;stroke:black;stroke-width:1.91px;"/>
                </g>
                <g transform="matrix(1.12579,0,0,0.932354,676.069659,-1083.736136)">
                    <g transform="matrix(0.707107,-0.707107,0.707107,0.707107,424.691459,2152.471258)">
                        <path d="M995.859,354.807L1272.973,631.921" style="fill:none;stroke:black;stroke-width:3.4px;stroke-dasharray:3.404,6.808,0,0,0,0;"/>
                    </g>
                    <g transform="matrix(0.707107,-0.707107,0.707107,0.707107,424.691459,2160.988159)">
                        <path d="M995.859,354.807L1007.904,342.763" style="fill:none;stroke:black;stroke-width:3.4px;"/>
                    </g>
                    <g transform="matrix(0.707107,-0.707107,0.707107,0.707107,816.589204,2160.988159)">
                        <path d="M995.859,354.807L1007.904,342.763" style="fill:none;stroke:black;stroke-width:3.4px;"/>
                    </g>
                </g>
                <g transform="matrix(1.782888,0,-0,1.476548,378.689891,-146.479616)">
                    <g transform="matrix(25,0,0,25,1192.238197,432.592936)">
                    </g>
                    <text x="1127.988px" y="432.593px" style="font-family:'Montserrat-Medium', 'Montserrat';font-weight:500;font-size:25px;">13cm</text>
                </g>
                <g transform="matrix(-0,1.476548,-1.782888,-0,3486.555373,-774.65176)">
                    <g transform="matrix(25,0,0,25,1199.663197,432.592936)">
                    </g>
                    <text x="1127.988px" y="432.593px" style="font-family:'Montserrat-Medium', 'Montserrat';font-weight:500;font-size:25px;">30cm</text>
                </g>
                <g transform="matrix(-1.833711,0,0,1.476548,5209.080408,-2012.305347)">
                    <g transform="matrix(-0.707107,-1.030443,0.707107,-1.030443,1821.972234,3678.355482)">
                        <path d="M995.859,354.807L1272.973,631.921" style="fill:none;stroke:black;stroke-width:1.47px;stroke-dasharray:1.475,2.95,0,0,0,0;"/>
                    </g>
                    <g transform="matrix(-0.707107,-0.707107,0.707107,-0.707107,1830.489136,3241.635757)">
                        <path d="M995.859,354.807L1007.904,342.763" style="fill:none;stroke:black;stroke-width:2.15px;"/>
                    </g>
                    <g transform="matrix(-0.707107,-0.707107,0.707107,-0.707107,1830.489136,2670.536184)">
                        <path d="M995.859,354.807L1007.904,342.763" style="fill:none;stroke:black;stroke-width:2.15px;"/>
                    </g>
                </g>
            </g>
        </g>
    </g>
</svg>
