<?xml version="1.0" encoding="UTF-8"?>
<svg id="_圖層_1" data-name="圖層 1" xmlns="http://www.w3.org/2000/svg" viewBox="0 0 78.95 104.11">
  <defs>
    <style>
      .cls-1 {
        fill: #2b2a28;
      }
    </style>
  </defs>
  <g>
    <path class="cls-1" d="M78.95,86.04H12.75V0h66.2v86.04ZM13.75,85.04h64.2V1H13.75v84.04Z"/>
    <g>
      <path class="cls-1" d="M5.95,46.37c0,.25-.03.5-.1.74-.06.24-.15.45-.27.62-.05.09-.11.15-.18.19-.07.04-.14.05-.21.04s-.13-.04-.18-.08c-.05-.04-.09-.1-.1-.17s0-.15.04-.24c.11-.18.19-.36.24-.54s.07-.35.07-.53c0-.3-.06-.53-.19-.69-.12-.16-.31-.23-.55-.23s-.4.08-.52.23-.17.38-.17.67v.43c0,.24-.11.35-.33.35-.1,0-.18-.03-.24-.09-.06-.06-.09-.15-.09-.26v-.36c0-.26-.06-.46-.19-.62-.13-.15-.31-.23-.53-.23-.21,0-.37.07-.48.21-.11.14-.17.34-.17.61,0,.17.03.33.07.5.05.16.13.32.24.48.04.08.05.15.04.22-.01.07-.04.12-.09.17-.05.04-.11.07-.17.08-.06.01-.13,0-.2-.03-.07-.03-.13-.09-.18-.17-.12-.17-.22-.38-.29-.61-.07-.23-.11-.47-.11-.71,0-.49.11-.86.33-1.13.22-.27.52-.4.92-.4.29,0,.53.08.73.23.2.16.34.37.4.64h-.08c.05-.32.19-.57.4-.75.21-.18.48-.27.8-.27.41,0,.74.15.99.45.24.3.36.71.36,1.23Z"/>
      <path class="cls-1" d="M5.95,42.27c0,.55-.21.97-.63,1.27-.42.29-1.02.44-1.8.44s-1.39-.15-1.8-.44c-.41-.29-.61-.71-.61-1.27s.2-.98.61-1.27c.41-.29,1-.43,1.79-.43s1.39.15,1.81.44c.42.29.63.71.63,1.27ZM5.28,42.27c0-.31-.14-.54-.43-.7s-.73-.23-1.34-.23-1.05.08-1.33.23c-.27.15-.41.39-.41.7s.14.54.41.69.72.23,1.32.23,1.05-.08,1.34-.23.43-.38.43-.69Z"/>
      <path class="cls-1" d="M5.95,38.33c0,.34-.07.64-.21.89s-.34.44-.59.58c-.26.14-.56.2-.91.2s-.65-.07-.89-.2c-.25-.14-.44-.33-.58-.58s-.2-.55-.2-.89c0-.15.02-.3.06-.46.04-.16.11-.31.21-.45.03-.07.08-.12.13-.14s.12-.03.18-.02.12.03.17.07c.05.04.08.08.09.14.01.06,0,.13-.04.2-.07.09-.12.19-.15.3-.03.11-.04.21-.04.3,0,.3.09.53.28.69.18.16.45.24.79.24s.6-.08.8-.24c.19-.16.29-.39.29-.69,0-.1-.01-.2-.04-.3-.03-.1-.08-.2-.15-.3-.04-.07-.05-.14-.04-.2.02-.06.05-.11.09-.14.05-.04.1-.06.16-.07s.12,0,.18.03c.06.03.11.08.14.14.1.14.17.29.21.45s.06.31.06.45Z"/>
      <path class="cls-1" d="M5.93,36.27c0,.26-.13.39-.4.39h-2.57c-.26,0-.39-.13-.39-.39,0-.12.03-.21.1-.28s.16-.1.3-.1h.51c-.06.02-.12.05-.18.07-.23-.09-.41-.23-.54-.41-.13-.19-.19-.41-.19-.67s.06-.48.19-.65c.13-.17.32-.29.58-.35v.09c-.24-.09-.42-.24-.56-.44-.14-.2-.21-.44-.21-.71,0-.37.11-.65.33-.83.22-.18.55-.27,1.01-.27h1.64c.12,0,.22.04.29.1.07.07.11.17.11.3,0,.26-.13.39-.4.39h-1.62c-.26,0-.45.04-.56.13s-.18.23-.18.43c0,.23.08.41.24.54.16.13.38.19.65.19h1.47c.12,0,.22.03.29.1.07.07.11.17.11.29s-.04.23-.11.29c-.07.07-.17.1-.29.1h-1.62c-.26,0-.45.04-.56.13s-.18.23-.18.43c0,.23.08.4.24.53.16.13.38.19.65.19h1.47c.27,0,.4.13.4.4Z"/>
    </g>
    <g>
      <path class="cls-1" d="M10.6,1h-4.14c-.28,0-.5-.22-.5-.5S6.18,0,6.45,0h4.14C10.87,0,11.1.22,11.1.5s-.22.5-.5.5Z"/>
      <path class="cls-1" d="M10.6,86.04h-4.14c-.28,0-.5-.22-.5-.5s.22-.5.5-.5h4.14c.28,0,.5.22.5.5s-.22.5-.5.5Z"/>
      <path class="cls-1" d="M8.52,86.04c-.28,0-.5-.22-.5-.5V.5C8.02.22,8.25,0,8.52,0s.5.22.5.5v85.04c0,.28-.22.5-.5.5Z"/>
    </g>
    <g>
      <path class="cls-1" d="M37.96,96.98c-.06-.07-.1-.16-.1-.27,0-.08.02-.15.05-.22.04-.07.08-.13.14-.19.13-.14.25-.26.36-.37s.21-.23.33-.35c.12-.12.23-.24.33-.35.11-.11.22-.24.36-.37.21-.22.35-.42.44-.6.09-.18.14-.36.14-.54,0-.23-.07-.41-.21-.52s-.35-.18-.63-.18c-.17,0-.33.03-.48.08-.16.05-.31.13-.47.24-.08.04-.15.06-.22.05-.07-.01-.12-.04-.17-.09-.04-.05-.07-.11-.09-.17-.02-.07,0-.13.02-.2.03-.07.08-.12.16-.17.19-.13.4-.23.63-.3s.47-.11.71-.11c.5,0,.88.11,1.14.34.27.23.4.55.4.97,0,.29-.07.56-.2.83-.13.26-.35.55-.64.85-.12.13-.24.24-.33.34-.1.1-.2.21-.31.32s-.22.22-.32.32-.21.22-.34.35v-.22h2.03c.23,0,.35.11.35.33s-.12.34-.35.34h-2.45c-.13,0-.23-.03-.3-.1Z"/>
      <path class="cls-1" d="M43.28,97.15c-.25,0-.5-.03-.74-.1-.24-.06-.45-.15-.62-.27-.09-.05-.15-.11-.19-.18-.04-.07-.05-.14-.04-.21,0-.07.04-.13.08-.18.04-.05.1-.09.17-.1s.15,0,.24.04c.18.11.36.19.54.24s.35.07.53.07c.3,0,.53-.06.69-.19.16-.12.23-.31.23-.55s-.08-.41-.23-.52c-.15-.12-.38-.17-.67-.17h-.43c-.24,0-.35-.11-.35-.33,0-.1.03-.18.09-.24s.15-.09.26-.09h.36c.26,0,.46-.06.62-.19s.23-.31.23-.53c0-.21-.07-.37-.21-.48-.14-.11-.34-.17-.61-.17-.17,0-.33.02-.5.07-.16.05-.32.13-.48.24-.08.04-.15.05-.22.04-.07-.01-.12-.04-.17-.09-.04-.05-.07-.11-.08-.17-.01-.06,0-.13.03-.2.03-.07.09-.13.17-.18.17-.12.38-.22.61-.29.23-.07.47-.11.71-.11.49,0,.86.11,1.13.33.27.22.4.52.4.92,0,.29-.08.53-.23.73-.16.2-.37.34-.64.4v-.08c.32.05.57.19.75.4.18.21.27.48.27.8,0,.41-.15.74-.45.99-.3.24-.71.36-1.23.36Z"/>
      <path class="cls-1" d="M47.3,97.15c-.34,0-.64-.07-.89-.21-.25-.14-.44-.34-.58-.59s-.2-.56-.2-.91.07-.65.2-.9c.14-.25.33-.44.58-.58.25-.14.55-.2.89-.2.15,0,.3.02.46.06.16.04.31.11.45.21.07.03.12.08.14.13.02.06.03.12.02.18,0,.07-.03.12-.07.17-.04.05-.08.08-.14.09-.06.01-.13,0-.2-.04-.09-.07-.19-.12-.3-.15-.11-.03-.21-.04-.3-.04-.3,0-.53.09-.69.28-.16.18-.24.45-.24.79s.08.6.24.8c.16.19.39.29.69.29.1,0,.2-.01.3-.04s.2-.08.3-.15c.07-.04.14-.05.2-.04.06.02.11.05.14.09.04.05.06.1.07.16s0,.12-.03.18c-.03.06-.08.1-.14.14-.14.1-.29.17-.45.21s-.31.06-.45.06Z"/>
      <path class="cls-1" d="M49.36,97.13c-.26,0-.39-.13-.39-.4v-2.57c0-.26.13-.39.39-.39.12,0,.21.03.28.1s.1.16.1.3v.51c-.02-.06-.05-.12-.07-.18.09-.23.23-.41.41-.54.19-.13.41-.19.67-.19s.48.06.65.19c.17.13.29.32.35.58h-.09c.09-.24.24-.42.44-.56.2-.14.44-.21.71-.21.37,0,.65.11.83.33.18.22.27.55.27,1.01v1.64c0,.12-.04.22-.1.29-.07.07-.17.11-.3.11-.26,0-.39-.13-.39-.4v-1.62c0-.26-.04-.45-.13-.56-.09-.12-.23-.18-.43-.18-.23,0-.41.08-.54.24-.13.16-.19.38-.19.65v1.47c0,.12-.03.22-.1.29s-.17.11-.29.11-.23-.04-.29-.11c-.07-.07-.1-.17-.1-.29v-1.62c0-.26-.04-.45-.13-.56-.09-.12-.23-.18-.43-.18-.23,0-.4.08-.53.24s-.19.38-.19.65v1.47c0,.27-.13.4-.4.4Z"/>
    </g>
    <g>
      <path class="cls-1" d="M13.25,92.44c-.28,0-.5-.22-.5-.5v-4.14c0-.28.22-.5.5-.5s.5.22.5.5v4.14c0,.28-.22.5-.5.5Z"/>
      <path class="cls-1" d="M78.45,92.44c-.28,0-.5-.22-.5-.5v-4.14c0-.28.22-.5.5-.5s.5.22.5.5v4.14c0,.28-.22.5-.5.5Z"/>
      <path class="cls-1" d="M78.45,90.37H13.25c-.28,0-.5-.22-.5-.5s.22-.5.5-.5h65.2c.28,0,.5.22.5.5s-.22.5-.5.5Z"/>
    </g>
  </g>
  <g>
    <path class="cls-1" d="M37.11,44.06c.13,0,.25.04.33.13s.13.19.13.33v5.36c0,.17-.02.31-.06.42-.04.11-.11.19-.22.25-.1.05-.21.09-.32.1s-.26.02-.45.02c-.1,0-.19-.02-.27-.09-.07-.06-.12-.14-.13-.24v-.02c-.02-.09,0-.17.05-.23.05-.06.13-.09.23-.09.09,0,.16,0,.22,0h.16c.08,0,.13-.05.13-.13v-5.03s-.01-.07-.04-.09c-.03-.02-.06-.03-.09-.03h-.6s-.07.01-.09.03-.03.05-.03.09v1.92c0,.39-.01.81-.03,1.24s-.06.85-.13,1.27-.16.81-.29,1.17c-.03.1-.08.16-.16.18-.07.02-.16.01-.25-.04-.08-.05-.14-.12-.17-.2s-.03-.17,0-.26c.12-.34.21-.7.26-1.08.05-.37.09-.75.1-1.14.01-.39.02-.76.02-1.13v-2.25c0-.13.04-.24.13-.33s.2-.13.33-.13h1.24ZM36.33,45.65c.07,0,.13.04.19.09.08.07.15.14.21.2s.11.11.16.17c.05.07.08.13.07.21s-.04.14-.11.19c-.07.05-.13.08-.2.07-.07,0-.13-.05-.19-.11-.05-.07-.11-.14-.17-.2s-.12-.13-.2-.21c-.05-.06-.07-.11-.07-.18,0-.06.04-.12.1-.17.07-.05.13-.07.2-.06ZM36.06,47.94c.02-.09.07-.16.14-.21.1-.06.19-.12.28-.17.09-.05.19-.12.3-.19.11-.07.24-.16.39-.27l.19.42c-.12.11-.24.21-.33.29-.1.08-.19.15-.27.22s-.17.14-.27.22c-.07.07-.13.1-.21.09-.07,0-.13-.06-.18-.14-.04-.08-.06-.17-.04-.26ZM41.54,48c.1,0,.18.03.24.09s.09.14.09.24c0,.1-.03.18-.09.24s-.14.09-.24.09h-3.47c-.1,0-.18-.03-.24-.09-.06-.06-.09-.14-.09-.24s.03-.17.09-.24c.06-.06.14-.09.24-.09h3.47ZM41.3,46.24c.1,0,.18.03.24.09.06.06.09.14.09.24s-.03.17-.09.23-.14.09-.24.09h-3.02c-.09,0-.17-.03-.24-.09s-.09-.14-.09-.24.03-.17.09-.23c.06-.06.14-.09.24-.09h3.02ZM38.44,44.31c.08.03.14.09.18.17.06.11.12.22.17.34.05.12.1.23.15.34.04.11.08.2.11.28.04.09.03.18-.02.27-.05.08-.12.15-.21.2-.09.04-.17.05-.24.01-.07-.04-.12-.1-.15-.2-.02-.09-.06-.19-.1-.31-.04-.11-.09-.23-.14-.35s-.1-.23-.16-.33c-.04-.09-.04-.17-.01-.25s.09-.13.18-.17c.08-.04.17-.04.25,0ZM40.04,43.89c.06.06.09.15.09.25v6.26c0,.11-.03.19-.1.25-.06.06-.15.09-.25.09-.1,0-.18-.03-.25-.09-.06-.06-.1-.15-.1-.25v-6.26c0-.1.03-.19.1-.25.07-.06.15-.09.25-.09s.19.03.25.09ZM41.57,44.41c.04.08.04.18,0,.28-.05.1-.11.22-.17.36-.06.13-.12.26-.18.38-.06.12-.11.23-.16.31-.03.08-.09.13-.16.17-.08.03-.16.03-.24,0-.08-.04-.13-.09-.17-.16-.03-.07-.03-.14,0-.22.05-.09.1-.21.16-.33.05-.13.11-.25.15-.38s.09-.23.12-.33c.03-.11.08-.18.16-.23.08-.04.17-.05.28-.01.11.04.18.09.21.18Z"/>
    <path class="cls-1" d="M44.6,44.06c.13,0,.25.04.33.13s.13.19.13.33v5.36c0,.17-.02.31-.06.42-.04.11-.11.19-.22.25-.1.05-.21.09-.32.1s-.26.02-.45.02c-.1,0-.19-.02-.27-.09-.07-.06-.12-.14-.13-.24v-.02c-.02-.09,0-.17.05-.23.05-.06.13-.09.23-.09.09,0,.16,0,.22,0h.16c.08,0,.13-.05.13-.13v-5.03s-.01-.07-.04-.09c-.03-.02-.06-.03-.09-.03h-.6s-.07.01-.09.03-.03.05-.03.09v1.92c0,.39-.01.81-.03,1.24s-.06.85-.13,1.27-.16.81-.29,1.17c-.03.1-.08.16-.16.18-.07.02-.16.01-.25-.04-.08-.05-.14-.12-.17-.2s-.03-.17,0-.26c.12-.34.21-.7.26-1.08.05-.37.09-.75.1-1.14.01-.39.02-.76.02-1.13v-2.25c0-.13.04-.24.13-.33s.2-.13.33-.13h1.24ZM43.82,45.65c.07,0,.13.04.19.09.08.07.15.14.21.2s.11.11.16.17c.05.07.08.13.07.21s-.04.14-.11.19c-.07.05-.13.08-.2.07-.07,0-.13-.05-.19-.11-.05-.07-.11-.14-.17-.2s-.12-.13-.2-.21c-.05-.06-.07-.11-.07-.18,0-.06.04-.12.1-.17.07-.05.13-.07.2-.06ZM43.55,47.94c.02-.09.07-.16.14-.21.1-.06.19-.12.28-.17.09-.05.19-.12.3-.19.11-.07.24-.16.39-.27l.19.42c-.12.11-.24.21-.33.29-.1.08-.19.15-.27.22s-.17.14-.27.22c-.07.07-.13.1-.21.09-.07,0-.13-.06-.18-.14-.04-.08-.06-.17-.04-.26ZM49.03,48c.1,0,.18.03.24.09s.09.14.09.24c0,.1-.03.18-.09.24s-.14.09-.24.09h-3.47c-.1,0-.18-.03-.24-.09-.06-.06-.09-.14-.09-.24s.03-.17.09-.24c.06-.06.14-.09.24-.09h3.47ZM48.79,46.24c.1,0,.18.03.24.09.06.06.09.14.09.24s-.03.17-.09.23-.14.09-.24.09h-3.02c-.09,0-.17-.03-.24-.09s-.09-.14-.09-.24.03-.17.09-.23c.06-.06.14-.09.24-.09h3.02ZM45.93,44.31c.08.03.14.09.18.17.06.11.12.22.17.34.05.12.1.23.15.34.04.11.08.2.11.28.04.09.03.18-.02.27-.05.08-.12.15-.21.2-.09.04-.17.05-.24.01-.07-.04-.12-.1-.15-.2-.02-.09-.06-.19-.1-.31-.04-.11-.09-.23-.14-.35s-.1-.23-.16-.33c-.04-.09-.04-.17-.01-.25s.09-.13.18-.17c.08-.04.17-.04.25,0ZM47.53,43.89c.06.06.09.15.09.25v6.26c0,.11-.03.19-.1.25-.06.06-.15.09-.25.09-.1,0-.18-.03-.25-.09-.06-.06-.1-.15-.1-.25v-6.26c0-.1.03-.19.1-.25.07-.06.15-.09.25-.09s.19.03.25.09ZM49.06,44.41c.04.08.04.18,0,.28-.05.1-.11.22-.17.36-.06.13-.12.26-.18.38-.06.12-.11.23-.16.31-.03.08-.09.13-.16.17-.08.03-.16.03-.24,0-.08-.04-.13-.09-.17-.16-.03-.07-.03-.14,0-.22.05-.09.1-.21.16-.33.05-.13.11-.25.15-.38s.09-.23.12-.33c.03-.11.08-.18.16-.23.08-.04.17-.05.28-.01.11.04.18.09.21.18Z"/>
    <path class="cls-1" d="M53.31,47.69c.08,0,.16.03.21.08.05.06.08.13.08.22,0,.08-.03.15-.08.21-.05.06-.12.08-.21.08h-3.07c-.08,0-.16-.03-.21-.08-.05-.05-.08-.13-.08-.22,0-.08.03-.15.08-.21.05-.05.12-.08.21-.08h3.07ZM50.97,48.66c.04.06.05.14.03.22-.04.12-.08.25-.13.39s-.11.28-.18.41-.12.23-.17.31c-.04.08-.1.13-.18.15s-.16.01-.25-.03c-.08-.04-.12-.1-.14-.17-.02-.07,0-.14.03-.22.06-.08.12-.17.17-.28s.1-.22.14-.34c.04-.12.08-.23.11-.33.02-.08.06-.15.12-.19.06-.04.14-.06.24-.04.09.02.16.06.2.12ZM53.23,44.46c.08,0,.15.03.21.08.05.05.08.12.08.21s-.03.16-.08.21c-.06.05-.12.08-.21.08h-2.91c-.08,0-.15-.03-.21-.08s-.08-.13-.08-.22c0-.08.03-.15.08-.21s.12-.08.21-.08h2.91ZM53.07,45.58c.09,0,.16.03.22.08.06.05.08.12.08.21,0,.08-.03.15-.08.21s-.13.08-.22.08h-2.55c-.09,0-.16-.03-.22-.08-.05-.06-.08-.12-.08-.21,0-.09.03-.16.08-.21.05-.05.13-.08.22-.08h2.55ZM53,46.62c.09,0,.16.03.21.08.05.05.08.13.08.22,0,.08-.03.15-.08.21s-.12.08-.21.08h-2.43c-.08,0-.16-.03-.21-.08-.05-.05-.08-.12-.08-.21,0-.08.03-.16.08-.21s.12-.08.21-.08h2.43ZM52.13,50.06c0,.16-.02.28-.05.37s-.11.16-.21.21-.21.08-.3.09c-.1,0-.23.01-.4.02-.09,0-.17-.02-.24-.07-.07-.06-.11-.13-.12-.23h0c-.01-.1,0-.17.04-.22.04-.05.11-.08.2-.08h.31c.07,0,.1-.03.1-.1v-2.1h.67v2.11ZM52.03,43.92c.06.06.09.14.09.24v1.8h-.67v-1.8c0-.09.03-.17.09-.24s.15-.09.25-.09c.09,0,.17.03.23.09ZM52.95,48.58c.07.03.13.08.16.15.06.11.12.21.17.3.05.09.09.17.13.25.03.08.03.16-.01.24-.04.08-.1.14-.18.18-.08.04-.15.04-.22.01-.07-.03-.11-.09-.13-.18-.04-.09-.08-.19-.13-.29-.05-.09-.1-.19-.17-.3-.03-.08-.03-.15,0-.22.03-.06.08-.12.17-.15.08-.03.15-.03.22,0ZM55.41,46.71c0,.13,0,.3.03.49.02.19.06.4.11.63.05.23.13.47.22.71s.22.48.37.71.34.44.55.64c.08.08.12.16.13.26.01.1-.01.2-.08.29-.06.09-.14.14-.23.15-.09.01-.18-.02-.25-.1-.2-.18-.37-.39-.51-.61s-.26-.44-.35-.67c-.09-.22-.17-.44-.22-.65s-.09-.39-.11-.54c-.03.16-.07.34-.13.55-.06.21-.14.43-.25.65-.11.22-.25.45-.41.67-.17.22-.37.43-.6.62-.07.08-.16.1-.25.09s-.17-.07-.23-.16c-.05-.08-.07-.17-.06-.26s.06-.17.13-.24c.25-.19.46-.41.63-.64.17-.24.31-.47.42-.72.11-.24.19-.48.25-.72s.1-.45.12-.65.03-.37.03-.5v-1.31h.69v1.31ZM54.71,43.97c.05.07.07.16.06.27-.04.3-.09.57-.14.82-.05.25-.11.48-.17.7s-.13.42-.21.62-.17.4-.27.6c-.04.1-.11.16-.2.18s-.18,0-.27-.08c-.09-.06-.14-.14-.16-.24-.02-.09,0-.19.04-.29.09-.18.18-.36.24-.54.07-.18.13-.36.18-.55s.09-.39.13-.61.08-.46.12-.73c.01-.1.06-.18.13-.24s.16-.07.27-.05c.11.02.18.06.24.13ZM56.78,45.79c-.03.17-.06.33-.09.47-.03.14-.05.27-.08.38-.03.11-.05.23-.08.34-.02.08-.06.14-.12.17-.07.04-.14.04-.22.01-.08-.02-.15-.06-.19-.13s-.05-.14-.04-.23c.03-.08.05-.17.06-.27s.04-.21.06-.33c.02-.11.04-.22.04-.32,0-.07-.03-.11-.1-.11h-1.85v-.64h2.19c.12,0,.22.04.3.12.08.08.12.18.12.3v.22Z"/>
  </g>
</svg>