<?xml version="1.0" encoding="UTF-8" standalone="no"?>
<!DOCTYPE svg PUBLIC "-//W3C//DTD SVG 1.1//EN" "http://www.w3.org/Graphics/SVG/1.1/DTD/svg11.dtd">
<svg width="100%" height="100%" viewBox="0 0 638 638" version="1.1" xmlns="http://www.w3.org/2000/svg" xmlns:xlink="http://www.w3.org/1999/xlink" xml:space="preserve" xmlns:serif="http://www.serif.com/" style="fill-rule:evenodd;clip-rule:evenodd;stroke-linecap:round;stroke-linejoin:round;stroke-miterlimit:1.5;">
    <g transform="matrix(1,0,0,1,0,-0.062451)">
        <g id="Artboard1" transform="matrix(0.350809,0,0,0.350809,-198.137242,-446.857288)">
            <rect x="564.801" y="1273.968" width="1818.069" height="1818.069" style="fill:none;"/>
            <g transform="matrix(0.962963,0,0,0.962963,32.533396,44.275398)">
                <g transform="matrix(2.09317,2.09317,-2.09317,2.09317,1705.772324,-142.482561)">
                    <rect x="312.483" y="424.928" width="391.898" height="391.898" style="fill:none;stroke:black;stroke-width:2.15px;"/>
                </g>
                <g transform="matrix(-2.09317,2.09317,-2.09317,-2.09317,8770.283596,2923.324546)">
                    <g transform="matrix(-0.707107,-0.707107,0.707107,-0.707107,1816.757452,3062.433929)">
                        <path d="M995.859,354.807L1272.973,631.921" style="fill:none;stroke:black;stroke-width:2.15px;stroke-dasharray:2.149,4.299,0,0,0,0;"/>
                    </g>
                    <g transform="matrix(-0.707107,-0.707107,0.707107,-0.707107,1825.274354,3062.433929)">
                        <path d="M995.859,354.807L1007.904,342.763" style="fill:none;stroke:black;stroke-width:2.15px;"/>
                    </g>
                    <g transform="matrix(-0.707107,-0.707107,0.707107,-0.707107,1825.274354,2670.536184)">
                        <path d="M995.859,354.807L1007.904,342.763" style="fill:none;stroke:black;stroke-width:2.15px;"/>
                    </g>
                </g>
                <g transform="matrix(2.09317,2.09317,-2.09317,2.09317,407.363412,-1579.140572)">
                    <g transform="matrix(25,0,0,25,1197.338197,432.592936)">
                    </g>
                    <text x="1127.988px" y="432.593px" style="font-family:'Montserrat-Medium', 'Montserrat';font-weight:500;font-size:25px;">23cm</text>
                </g>
                <g transform="matrix(-2.09317,2.09317,-2.09317,-2.09317,8769.549459,2924.058682)">
                    <g transform="matrix(0.707107,-0.707107,0.707107,0.707107,424.691459,2152.471258)">
                        <path d="M995.859,354.807L1272.973,631.921" style="fill:none;stroke:black;stroke-width:2.15px;stroke-dasharray:2.149,4.299,0,0,0,0;"/>
                    </g>
                    <g transform="matrix(0.707107,-0.707107,0.707107,0.707107,424.691459,2160.988159)">
                        <path d="M995.859,354.807L1007.904,342.763" style="fill:none;stroke:black;stroke-width:2.15px;"/>
                    </g>
                    <g transform="matrix(0.707107,-0.707107,0.707107,0.707107,816.589204,2160.988159)">
                        <path d="M995.859,354.807L1007.904,342.763" style="fill:none;stroke:black;stroke-width:2.15px;"/>
                    </g>
                </g>
                <g transform="matrix(-2.09317,2.09317,-2.09317,-2.09317,5270.163976,1157.577269)">
                    <g transform="matrix(25,0,0,25,1197.338197,432.592936)">
                    </g>
                    <text x="1127.988px" y="432.593px" style="font-family:'Montserrat-Medium', 'Montserrat';font-weight:500;font-size:25px;">23cm</text>
                </g>
            </g>
        </g>
    </g>
</svg>
