<?xml version="1.0" encoding="UTF-8"?>
<svg id="_圖層_1" data-name="圖層 1" xmlns="http://www.w3.org/2000/svg" viewBox="0 0 119.47 119.47">
  <defs>
    <style>
      .cls-1 {
        fill: #2b2a28;
      }
    </style>
  </defs>
  <g>
    <path class="cls-1" d="M56.83,113.66L0,56.83,56.83,0l56.83,56.83-56.83,56.83ZM1.41,56.83l55.42,55.41,55.41-55.42L56.83,1.41,1.41,56.83Z"/>
    <g>
      <path class="cls-1" d="M62.85,119.47c-.13,0-.26-.05-.35-.15l-3.57-3.57c-.2-.2-.2-.51,0-.71s.51-.2.71,0l3.57,3.57c.2.2.2.51,0,.71-.1.1-.23.15-.35.15Z"/>
      <path class="cls-1" d="M118.97,63.35c-.13,0-.26-.05-.35-.15l-3.57-3.57c-.2-.2-.2-.51,0-.71s.51-.2.71,0l3.57,3.57c.2.2.2.51,0,.71-.1.1-.23.15-.35.15Z"/>
      <path class="cls-1" d="M61.07,117.69c-.13,0-.26-.05-.35-.15-.2-.2-.2-.51,0-.71l56.12-56.12c.2-.2.51-.2.71,0s.2.51,0,.71l-56.12,56.12c-.1.1-.23.15-.35.15Z"/>
    </g>
    <g>
      <path class="cls-1" d="M88.9,102.48c-.11,0-.22-.05-.32-.15-.07-.07-.12-.15-.14-.24-.03-.09-.04-.18-.05-.29,0-.23,0-.44-.02-.63,0-.19-.01-.38-.02-.59,0-.21-.02-.4-.02-.59,0-.18,0-.4-.02-.63-.01-.37-.06-.67-.14-.9s-.19-.43-.35-.59c-.2-.2-.41-.29-.63-.27s-.46.15-.69.39c-.14.14-.26.3-.35.48-.09.18-.15.38-.19.61-.03.11-.08.19-.15.23-.07.05-.14.07-.22.06-.08,0-.15-.03-.22-.07-.07-.04-.12-.11-.16-.19-.03-.08-.04-.18,0-.29.05-.27.14-.54.28-.8.13-.26.31-.5.52-.71.43-.43.85-.66,1.28-.69.43-.04.82.13,1.18.49.25.25.43.54.54.88.11.34.17.77.18,1.29,0,.22,0,.41,0,.58,0,.17,0,.35,0,.55,0,.19,0,.38,0,.55s0,.37,0,.59c-.06-.06-.12-.12-.19-.19l.45-.45c.13-.13.27-.27.42-.42.15-.15.29-.29.42-.42.13-.13.28-.28.45-.45.2-.2.39-.2.59-.01s.2.39,0,.59-.38.38-.54.54c-.16.16-.33.33-.51.51-.18.18-.35.35-.51.51-.16.16-.34.34-.54.54-.12.12-.23.17-.34.17Z"/>
      <path class="cls-1" d="M93.69,97.97c-.47.47-.94.73-1.4.8-.46.06-.88-.08-1.24-.45-.29-.29-.44-.61-.45-.97-.02-.36.09-.69.33-.99.04.04.08.08.12.12-.3.19-.61.27-.95.24s-.62-.17-.88-.43c-.34-.34-.48-.73-.42-1.18.06-.45.3-.88.73-1.31s.87-.67,1.31-.73c.44-.06.84.08,1.18.43.25.25.4.55.43.88.04.33-.04.64-.24.93-.03-.04-.07-.07-.11-.11.31-.23.64-.34.99-.32.35.02.67.17.96.45.36.36.51.78.44,1.24-.06.47-.33.93-.79,1.4ZM91.31,95.59c.24-.24.37-.48.38-.72s-.07-.46-.26-.66c-.19-.19-.41-.28-.65-.26-.24.02-.48.15-.72.39-.23.23-.36.47-.38.71-.02.24.06.46.25.65.2.2.42.28.66.26.24-.02.48-.15.72-.38ZM93.14,97.43c.28-.28.44-.55.47-.8.03-.25-.05-.48-.27-.7-.22-.22-.45-.31-.7-.27-.25.04-.51.2-.79.48-.28.28-.44.54-.47.79-.04.25.05.49.27.7.21.21.45.3.7.26.26-.04.52-.19.8-.47Z"/>
      <path class="cls-1" d="M97.08,94.58c-.29.29-.61.49-.95.58-.34.09-.67.09-1.01-.01s-.66-.31-.96-.61c-.3-.3-.5-.61-.59-.95-.1-.33-.1-.66,0-1,.1-.33.29-.64.59-.94.13-.13.28-.24.45-.34.17-.1.36-.17.57-.21.09-.04.17-.04.24,0,.07.03.13.07.18.14.05.06.08.13.09.2,0,.07,0,.14-.04.2-.04.06-.11.11-.21.14-.14.02-.27.06-.38.13s-.21.14-.29.23c-.26.26-.38.54-.36.83.02.3.18.6.47.89.29.29.59.45.9.48.31.03.59-.09.85-.35.08-.08.16-.18.22-.29.06-.11.11-.24.13-.38.03-.1.07-.16.14-.2.06-.04.13-.05.2-.04.07.01.14.04.2.08s.11.11.13.18c.03.08.03.16,0,.24-.04.21-.11.4-.21.56-.1.17-.21.32-.34.44Z"/>
      <path class="cls-1" d="M98.84,92.8c-.22.22-.45.22-.68-.01-.16-.16-.31-.31-.44-.44-.13-.13-.28-.28-.43-.43-.16-.16-.31-.31-.47-.47s-.3-.3-.43-.43c-.13-.13-.28-.28-.44-.44-.22-.23-.23-.45,0-.67.1-.1.21-.16.32-.16s.22.06.34.17c.09.09.16.16.22.22.06.06.13.13.22.22-.07-.03-.15-.06-.22-.09-.12-.28-.16-.55-.11-.82.05-.27.19-.52.41-.75s.47-.36.72-.4c.26-.04.52.03.8.2l-.08.08c-.13-.28-.16-.57-.1-.86s.2-.56.43-.79c.32-.32.65-.46.99-.43.35.03.71.24,1.1.63.13.13.26.26.37.37.11.11.22.22.34.34l.34.34.37.37c.11.11.16.22.16.34,0,.12-.05.24-.16.35-.22.22-.45.22-.68-.01-.13-.13-.26-.25-.36-.36-.1-.11-.22-.22-.34-.34l-.34-.34c-.11-.11-.22-.23-.36-.36-.22-.22-.42-.35-.6-.37-.18-.03-.35.04-.52.22-.2.2-.28.42-.26.67.02.25.15.49.39.73.12.12.23.23.33.33.1.1.2.2.3.31s.21.21.3.3l.33.33c.11.11.16.22.16.34,0,.12-.05.23-.16.34s-.23.16-.35.16c-.12,0-.23-.06-.34-.17-.13-.13-.26-.25-.36-.36-.1-.11-.22-.22-.34-.34l-.34-.34c-.11-.11-.22-.23-.36-.36-.22-.22-.42-.35-.6-.37-.18-.03-.35.05-.52.22-.2.2-.28.42-.25.66.03.24.16.49.39.72.12.12.23.23.33.33.1.1.2.2.3.31s.21.21.3.3l.33.33c.23.23.23.46,0,.69Z"/>
    </g>
  </g>
  <g>
    <path class="cls-1" d="M44.76,60.6c.11,0,.19.03.25.09s.09.15.09.25-.03.19-.09.25c-.06.06-.15.09-.25.09h-5.85c-.11,0-.19-.03-.25-.09-.06-.06-.09-.15-.09-.25s.03-.19.09-.25.15-.09.25-.09h5.85ZM44.53,55.16c.1,0,.18.03.24.09s.09.15.09.25-.03.18-.09.24-.14.09-.24.09h-5.56c-.1,0-.19-.03-.25-.09-.06-.06-.09-.15-.09-.25,0-.1.03-.18.09-.24.06-.06.14-.09.25-.09h5.56ZM40.06,55.44v5.62h-.73v-5.62h.73ZM43.78,56.77c.14,0,.25.04.33.13s.13.19.13.33v1.81c0,.13-.04.24-.13.33s-.19.13-.33.13h-4.04v-.69h3.58c.05,0,.1-.02.13-.05.03-.04.05-.08.05-.13v-.97c0-.06-.02-.1-.05-.13s-.08-.05-.13-.05h-3.58v-.69h4.04Z"/>
    <path class="cls-1" d="M52.34,59.11c.1,0,.18.03.24.09.06.06.09.14.09.23s-.03.17-.09.23-.14.09-.24.09h-6.04c-.09,0-.17-.03-.22-.09s-.09-.14-.09-.23c0-.1.03-.18.09-.24.06-.06.13-.09.22-.09h6.04ZM47.98,55.01c.03.08.02.16-.03.26-.1.18-.2.34-.29.48-.09.14-.19.27-.28.39s-.2.24-.31.36c-.11.12-.23.24-.36.36-.08.08-.18.12-.28.12s-.2-.04-.29-.11c-.08-.07-.12-.14-.12-.22s.05-.16.13-.22c.13-.11.25-.21.34-.31.1-.1.19-.2.27-.3s.16-.21.24-.33c.08-.12.17-.26.25-.41.05-.09.13-.16.22-.2.09-.04.19-.04.3-.01.1.03.17.08.2.16ZM47.36,60.23c.04.08.05.17,0,.26-.05.1-.11.21-.17.33-.06.12-.13.23-.2.33-.07.11-.14.2-.2.27-.05.08-.13.14-.24.17-.1.03-.21.02-.31-.03-.09-.04-.15-.1-.16-.17-.02-.08,0-.16.06-.24.1-.1.2-.23.3-.39.09-.15.17-.3.24-.45.04-.09.11-.17.19-.21.08-.05.18-.06.28-.03.1.02.17.07.22.15ZM52.13,57.34c.09,0,.17.03.23.09.06.06.09.14.09.24,0,.09-.03.17-.09.22s-.13.09-.23.09h-5.61c-.09,0-.17-.03-.22-.09-.06-.06-.09-.14-.09-.23s.03-.17.09-.23c.06-.06.13-.09.22-.09h5.61ZM47.63,55.8v3.66h-.63v-3.66h.63ZM52.14,55.58c.09,0,.17.03.22.09.05.06.08.13.08.23s-.03.17-.08.23c-.06.06-.13.09-.22.09h-5.05l.19-.63h4.85ZM48.7,60.24c.07.05.12.13.13.23.03.12.05.25.07.38.02.13.03.24.03.33.02.11,0,.2-.07.27-.06.07-.14.12-.25.13-.1.01-.18,0-.25-.06-.06-.05-.1-.13-.11-.24,0-.11-.01-.23-.03-.36-.02-.13-.03-.26-.05-.38,0-.09,0-.17.06-.24s.12-.1.22-.11c.09-.01.18,0,.25.06ZM48.94,55.8v3.63h-.6v-3.63h.6ZM50.27,55.8v3.66h-.6v-3.66h.6ZM50.24,60.21c.08.05.14.12.17.21.06.12.11.25.16.38.05.13.08.24.11.34.03.1.02.19-.03.27s-.13.13-.24.15c-.1.02-.19,0-.26-.05-.07-.05-.12-.13-.15-.23-.03-.11-.07-.24-.11-.36-.04-.13-.09-.25-.14-.38-.03-.09-.02-.18.02-.25.04-.07.11-.11.21-.13.1-.02.19,0,.27.04ZM51.67,55.8v3.66h-.65v-3.66h.65ZM51.78,60.07c.1.03.18.09.24.18.08.09.15.19.23.3.08.11.15.21.21.31s.12.19.17.26c.05.09.06.19.03.27-.03.09-.11.15-.22.18-.1.04-.2.03-.3,0-.09-.04-.16-.11-.21-.21-.07-.13-.15-.28-.26-.45-.11-.17-.22-.32-.33-.45-.06-.09-.07-.17-.04-.25.03-.08.09-.13.19-.16s.2-.03.3,0Z"/>
    <path class="cls-1" d="M56.69,60.64c.06,0,.12.02.16.06.04.04.06.1.06.17,0,.06-.02.12-.06.16s-.1.06-.16.06h-3.02c-.07,0-.12-.02-.16-.06-.04-.04-.06-.1-.06-.17,0-.06.02-.12.06-.16.04-.04.1-.06.16-.06h3.02ZM56.81,57.96c.07,0,.12.02.16.06.04.04.06.09.06.17,0,.06-.02.12-.06.16-.04.04-.09.06-.16.06h-3.11c-.06,0-.12-.02-.16-.06-.04-.04-.06-.1-.06-.16s.02-.12.06-.16.09-.06.16-.06h3.11ZM59.6,55.83c.13,0,.24.04.33.13s.13.2.13.33v.43c0,.09-.03.17-.09.24-.06.06-.14.09-.24.09h-.1c-.07,0-.13-.02-.17-.07s-.07-.1-.07-.17v-.4s-.02-.08-.04-.11c-.03-.03-.07-.04-.11-.04h-4.85s-.08.01-.11.04c-.03.03-.04.07-.04.11v.4c0,.07-.02.13-.06.17s-.1.07-.17.07h-.09c-.09,0-.17-.03-.23-.09-.06-.06-.09-.13-.09-.23v-.45c0-.13.04-.25.13-.33s.19-.13.33-.13h5.56ZM56.3,59.29c.13,0,.24.04.33.13.08.08.12.19.12.33v.18c0,.13-.04.24-.12.32-.08.08-.19.13-.33.13h-2.1c-.13,0-.24-.04-.33-.13-.09-.08-.13-.19-.13-.32v-.19c0-.13.04-.24.13-.33.09-.08.2-.12.33-.12h2.1ZM59.33,55.02c.07,0,.13.02.17.07.04.05.07.11.07.18,0,.07-.02.13-.07.17s-.1.07-.17.07h-5.03c-.07,0-.13-.02-.18-.07-.05-.04-.07-.11-.07-.18,0-.07.02-.13.07-.18s.11-.07.18-.07h5.03ZM54.62,57.76s.07.11.07.19v.62s.01.05.03.07c.02.02.05.03.07.03h.89s.06,0,.08-.03.03-.04.03-.07v-.61c0-.08.03-.15.08-.21s.12-.08.21-.08c.09,0,.16.03.21.08s.08.12.08.21v.62c0,.13-.04.24-.13.33-.08.09-.2.13-.33.13h-1.33c-.13,0-.25-.04-.33-.13-.08-.09-.13-.2-.13-.33v-.64c0-.08.02-.14.08-.19.05-.05.12-.08.21-.08.08,0,.15.03.2.08ZM54.26,59.92c0,.06.03.09.09.09h1.76c.06,0,.09-.03.09-.09v-.18c0-.06-.03-.09-.09-.09h-1.76c-.06,0-.09.03-.09.09v.18ZM55.96,57.17c.12,0,.18.06.18.19,0,.05-.02.09-.05.12s-.08.05-.13.05h-1.42c-.12,0-.17-.06-.17-.18,0-.06.02-.1.05-.13.03-.03.07-.05.12-.05h1.42ZM55.96,56.54c.11,0,.17.06.17.19,0,.04-.02.08-.05.12-.03.03-.07.05-.12.05h-1.26c-.12,0-.17-.06-.17-.19,0-.05.02-.09.05-.12.03-.03.07-.05.12-.05h1.26ZM55.53,58.78v2.62c0,.09-.03.16-.08.22-.05.05-.13.08-.22.08-.09,0-.16-.03-.22-.08s-.08-.13-.08-.22v-2.62h.61ZM57.14,55.23v2.1c0,.1-.03.18-.09.25-.06.07-.15.1-.26.1-.1,0-.18-.03-.24-.1-.06-.06-.09-.15-.09-.25v-2.1h.69ZM59.43,57.88c.13,0,.25.04.33.13.08.08.13.19.13.33v2.66c0,.16-.02.28-.06.37-.04.09-.11.16-.21.21-.11.04-.22.07-.34.08-.12,0-.28.01-.49.01-.08,0-.16-.02-.21-.07s-.1-.12-.12-.21c-.01-.08,0-.14.04-.19s.11-.08.19-.08h.42s.08,0,.09-.03c.02-.02.03-.05.03-.09v-2.43s-.01-.07-.03-.1c-.02-.02-.05-.04-.09-.04h-1.06s-.07.01-.09.04-.04.06-.04.1v.74c0,.25-.01.51-.04.75s-.07.49-.14.73-.17.46-.3.68c-.03.08-.1.13-.18.15-.09.02-.17,0-.25-.04-.08-.04-.13-.1-.15-.18s0-.15.03-.24c.12-.2.22-.39.28-.59.06-.2.1-.41.12-.62.02-.21.03-.43.03-.65v-.95c0-.13.04-.24.13-.33s.19-.13.32-.13h1.67ZM58.91,56.54c.11,0,.17.06.17.19,0,.04-.02.08-.05.12-.03.03-.07.05-.12.05h-1.28c-.11,0-.17-.06-.17-.19,0-.05.02-.09.05-.12.03-.03.07-.05.12-.05h1.28ZM59.09,57.17c.12,0,.17.06.17.19,0,.05-.01.09-.04.12-.03.03-.07.05-.13.05h-1.46c-.11,0-.17-.06-.17-.18,0-.06.02-.1.05-.13s.07-.05.12-.05h1.46ZM59.58,59.91v.48h-2.06v-.48h2.06ZM59.58,58.91v.48h-1.9v-.48h1.9Z"/>
    <path class="cls-1" d="M67.27,56.01c.1,0,.19.03.25.09.06.06.09.15.09.26,0,.1-.03.18-.09.24-.06.06-.15.09-.25.09h-5.92c-.1,0-.18-.03-.24-.09s-.09-.15-.09-.26c0-.1.03-.19.09-.25s.14-.09.24-.09h5.92ZM63.8,56.42c-.02.39-.05.79-.09,1.17-.04.39-.1.76-.18,1.13s-.19.72-.34,1.06c-.15.34-.34.65-.58.94s-.55.56-.91.79c-.09.07-.19.1-.29.08-.11-.02-.2-.07-.27-.15h-.02c-.07-.1-.1-.18-.09-.27.01-.08.06-.16.15-.22.33-.21.6-.44.82-.7.22-.26.39-.54.52-.84.13-.3.22-.62.29-.94.06-.33.11-.66.13-1,.02-.34.04-.69.06-1.04h.79ZM66.87,58.45c-.04.6-.09,1.1-.15,1.49-.05.39-.12.69-.18.9s-.15.37-.24.47c-.09.11-.2.18-.31.22-.11.04-.25.07-.41.08-.14,0-.29.01-.46.01-.17,0-.37,0-.6-.02-.1,0-.19-.04-.27-.1-.08-.07-.12-.15-.15-.25-.02-.1,0-.19.05-.24s.13-.08.24-.08c.2.02.38.02.53.03.15,0,.28,0,.39,0,.08,0,.15,0,.21-.02.05-.01.1-.04.15-.07.07-.06.13-.18.18-.35s.1-.42.15-.74.09-.72.13-1.21c0-.08-.03-.11-.1-.11h-2.6v-.69h3.03c.12,0,.22.04.3.12.08.08.12.18.12.31v.26ZM64.43,54.8c.09.03.17.1.22.19.04.08.08.15.12.22.04.08.07.15.09.21.05.1.06.2.02.29-.04.1-.11.17-.21.21h-.02c-.1.05-.2.05-.29.01-.09-.04-.15-.11-.2-.21-.04-.09-.07-.17-.1-.23s-.07-.14-.12-.24c-.04-.09-.05-.18-.02-.27s.1-.15.21-.19c.1-.04.21-.04.3,0Z"/>
    <path class="cls-1" d="M72.13,57.66c.09,0,.17.03.23.09.06.06.09.14.09.24s-.03.17-.09.24c-.06.06-.14.09-.23.09h-3.47c-.1,0-.18-.03-.24-.09-.06-.06-.09-.14-.09-.24s.03-.17.09-.23c.06-.06.14-.09.24-.09h3.47ZM69.93,57.83c0,.47-.02.92-.06,1.34-.04.42-.12.83-.25,1.21-.13.38-.32.75-.59,1.11-.07.08-.14.12-.24.13-.09,0-.18-.03-.27-.1-.08-.08-.11-.16-.12-.25s.02-.18.08-.27c.23-.31.4-.63.51-.96.11-.33.18-.68.21-1.04.03-.37.05-.75.05-1.16v-2.46h.67v2.46ZM72.02,55.2c.1,0,.18.03.24.09s.09.14.09.24-.03.18-.09.24-.14.09-.24.09h-3.24c-.1,0-.17-.03-.24-.09-.06-.06-.09-.14-.09-.24s.03-.18.09-.24c.06-.06.14-.09.24-.09h3.24ZM71.68,55.38v5.98c0,.1-.03.18-.09.24-.06.06-.15.09-.26.09-.1,0-.18-.03-.25-.09-.07-.06-.1-.14-.1-.24v-5.98h.7ZM75.18,59.25c.03.08.01.17-.04.25-.16.23-.32.44-.49.62-.17.19-.34.36-.52.52-.19.16-.38.31-.6.45-.21.14-.44.28-.69.41-.09.06-.2.08-.3.06s-.2-.08-.27-.16c-.07-.08-.1-.17-.08-.25.02-.08.07-.15.17-.2.24-.11.46-.23.65-.35.2-.12.38-.24.55-.38s.33-.28.48-.45.29-.34.43-.54c.07-.08.15-.14.24-.18.1-.03.2-.03.3,0,.09.04.16.1.19.18ZM74.83,55.17c.02.08,0,.16-.08.24-.13.15-.26.28-.38.4s-.25.23-.38.33c-.13.1-.26.2-.4.3-.14.1-.29.2-.46.3-.08.06-.18.08-.29.07-.1-.01-.19-.06-.27-.13-.07-.08-.1-.15-.09-.22,0-.08.06-.14.15-.2.15-.09.3-.18.43-.26.13-.08.25-.17.36-.25.11-.09.22-.18.33-.28s.22-.21.33-.33c.07-.08.16-.14.26-.17s.2-.02.3.03c.1.04.17.1.19.17ZM75,57.23c.02.07,0,.15-.08.23-.13.16-.27.3-.4.43-.13.13-.27.25-.41.36-.14.11-.28.22-.43.33s-.31.22-.49.33c-.08.06-.17.08-.27.08s-.19-.05-.27-.13c-.07-.08-.1-.16-.09-.23,0-.07.06-.14.14-.2.17-.09.32-.19.46-.28s.27-.18.4-.28c.13-.1.25-.2.37-.31s.24-.24.36-.37c.07-.07.15-.13.24-.15.09-.03.19-.02.29.02.1.04.16.1.18.17Z"/>
  </g>
</svg>