<?xml version="1.0" encoding="UTF-8"?>
<svg id="_圖層_1" data-name="圖層 1" xmlns="http://www.w3.org/2000/svg" viewBox="0 0 98.35 98.35">
  <defs>
    <style>
      .cls-1 {
        fill: #2b2a28;
      }
    </style>
  </defs>
  <g>
    <path class="cls-1" d="M46.81,93.61L0,46.81,46.81,0l46.81,46.81-46.81,46.81ZM1.41,46.81l45.39,45.39,45.39-45.39L46.81,1.41,1.41,46.81Z"/>
    <g>
      <path class="cls-1" d="M51.75,98.35c-.13,0-.26-.05-.35-.15l-2.93-2.93c-.2-.2-.2-.51,0-.71s.51-.2.71,0l2.93,2.93c.2.2.2.51,0,.71-.1.1-.23.15-.35.15Z"/>
      <path class="cls-1" d="M97.86,52.25c-.13,0-.26-.05-.35-.15l-2.93-2.93c-.2-.2-.2-.51,0-.71s.51-.2.71,0l2.93,2.93c.2.2.2.51,0,.71-.1.1-.23.15-.35.15Z"/>
      <path class="cls-1" d="M50.29,96.89c-.13,0-.26-.05-.35-.15-.2-.2-.2-.51,0-.71l46.1-46.1c.2-.2.51-.2.71,0s.2.51,0,.71l-46.1,46.1c-.1.1-.23.15-.35.15Z"/>
    </g>
    <g>
      <path class="cls-1" d="M73.15,84.31c-.09,0-.18-.04-.26-.12-.06-.06-.1-.12-.12-.19-.02-.07-.03-.15-.04-.24,0-.19,0-.37-.01-.52,0-.15,0-.31-.02-.48s-.01-.33-.02-.48c0-.15,0-.33-.01-.52-.01-.3-.05-.55-.11-.74-.06-.19-.16-.35-.29-.48-.16-.16-.34-.24-.52-.22-.18.02-.38.12-.57.32-.12.12-.21.25-.29.4s-.13.31-.16.5c-.03.09-.07.15-.12.19-.06.04-.12.06-.18.05-.06,0-.13-.03-.18-.06s-.1-.09-.13-.16c-.03-.07-.03-.15,0-.24.04-.22.12-.44.23-.66.11-.22.25-.41.43-.58.35-.35.7-.54,1.05-.57s.67.11.97.4c.2.2.35.45.44.73.09.28.14.63.15,1.06,0,.18,0,.34,0,.48,0,.14,0,.29,0,.45,0,.16,0,.31,0,.45,0,.14,0,.3,0,.48-.05-.05-.1-.1-.16-.16l.37-.37.35-.35.35-.35.37-.37c.16-.16.33-.17.48,0,.16.16.16.32,0,.49l-.45.45-.42.42-.42.42-.45.45c-.09.09-.19.14-.28.14Z"/>
      <path class="cls-1" d="M77.02,80.67c-.18.18-.37.33-.59.45-.22.13-.43.21-.63.25-.1.03-.18.03-.26,0s-.13-.06-.17-.12-.07-.12-.07-.19c0-.07,0-.13.05-.2.04-.06.11-.11.2-.14.21-.05.39-.12.55-.21.16-.09.3-.2.43-.33.21-.21.33-.42.35-.62s-.05-.38-.22-.55c-.16-.16-.34-.23-.53-.21s-.39.14-.6.35c-.06.06-.11.12-.15.15-.04.04-.09.09-.15.15-.17.17-.33.17-.49.01-.07-.07-.11-.15-.1-.24,0-.08.04-.17.12-.25l.13-.13.13-.13c.18-.18.28-.37.3-.57s-.06-.38-.22-.54c-.15-.15-.31-.21-.49-.19-.18.02-.36.12-.55.31-.12.12-.22.25-.3.4-.08.15-.14.32-.17.51-.03.08-.07.15-.12.19s-.12.06-.18.05c-.07,0-.13-.03-.18-.06-.05-.04-.09-.09-.12-.16-.03-.07-.03-.15,0-.25.03-.21.11-.42.22-.64.12-.21.26-.41.43-.58.34-.34.69-.53,1.03-.57.34-.04.66.08.93.36.2.2.32.43.35.68.03.25-.02.5-.17.74l-.06-.06c.26-.19.53-.27.81-.25.28.02.53.15.75.38.29.29.42.63.38,1.02-.04.38-.25.76-.62,1.13Z"/>
      <path class="cls-1" d="M79.87,77.82c-.24.24-.5.4-.78.48-.28.08-.55.07-.83-.01-.28-.08-.54-.25-.79-.5-.25-.25-.41-.5-.49-.78-.08-.27-.08-.54,0-.82.08-.27.24-.53.48-.77.1-.1.23-.2.37-.28.14-.08.3-.14.46-.17.07-.03.14-.03.2,0,.06.02.11.06.15.11.04.05.06.11.07.17s0,.11-.04.16c-.03.05-.09.09-.17.11-.12.02-.22.05-.31.11s-.17.12-.24.19c-.21.21-.31.44-.29.68.02.25.15.49.39.73.24.24.48.37.74.39.25.02.48-.07.69-.28.07-.07.13-.15.18-.24.05-.09.09-.2.11-.32.02-.08.06-.13.11-.17.05-.03.11-.04.17-.04.06,0,.11.03.16.07s.09.09.11.15c.02.06.02.13,0,.2-.03.17-.09.32-.17.46-.08.14-.17.26-.28.36Z"/>
      <path class="cls-1" d="M81.32,76.35c-.18.18-.37.18-.56,0l-.36-.36-.35-.35-.38-.38-.36-.36-.36-.36c-.19-.19-.19-.37,0-.55.08-.08.17-.13.26-.13.09,0,.18.05.28.14.07.07.13.13.18.18.05.05.11.11.18.18-.06-.03-.12-.05-.18-.08-.1-.23-.13-.45-.09-.68.04-.22.15-.43.34-.61s.38-.29.59-.33c.21-.03.43.02.66.16l-.07.07c-.1-.23-.13-.47-.09-.71.05-.24.17-.46.36-.65.26-.26.53-.38.82-.35s.59.2.91.52l.3.3.28.28.28.28.3.3c.09.09.13.18.13.28,0,.1-.04.19-.14.29-.18.18-.37.18-.56,0l-.29-.29-.28-.28-.28-.28-.29-.29c-.18-.18-.35-.29-.49-.31-.15-.02-.29.04-.43.18-.16.16-.23.34-.21.55.02.2.13.4.32.6.1.1.19.19.27.27.08.08.16.16.25.25.09.09.17.17.25.25.08.08.17.17.27.27.09.09.13.18.13.28,0,.1-.04.19-.13.28-.09.09-.19.13-.28.13-.1,0-.19-.05-.28-.14l-.29-.29-.28-.28-.28-.28-.29-.29c-.18-.18-.35-.29-.49-.31s-.29.04-.43.18c-.16.16-.23.34-.21.54.02.2.13.4.33.6.1.1.19.19.27.27.08.08.16.16.25.25.09.09.17.17.25.25.08.08.17.17.27.27.19.19.19.38,0,.57Z"/>
    </g>
  </g>
  <g>
    <path class="cls-1" d="M45.49,44.1c.1,0,.19.03.25.09.06.06.09.15.09.26,0,.1-.03.18-.09.24-.06.06-.15.09-.25.09h-5.92c-.1,0-.18-.03-.24-.09s-.09-.15-.09-.26c0-.1.03-.19.09-.25s.14-.09.24-.09h5.92ZM42.01,44.52c-.02.39-.05.79-.09,1.17-.04.39-.1.76-.18,1.13s-.19.72-.34,1.06c-.15.34-.34.65-.58.94s-.55.56-.91.79c-.09.07-.19.1-.29.08-.11-.02-.2-.07-.27-.15h-.02c-.07-.1-.1-.18-.09-.27.01-.08.06-.16.15-.22.33-.21.6-.44.82-.7.22-.26.39-.54.52-.84.13-.3.22-.62.29-.94.06-.33.11-.66.13-1,.02-.34.04-.69.06-1.04h.79ZM45.08,46.55c-.04.6-.09,1.1-.15,1.49-.05.39-.12.69-.18.9s-.15.37-.24.47c-.09.11-.2.18-.31.22-.11.04-.25.07-.41.08-.14,0-.29.01-.46.01-.17,0-.37,0-.6-.02-.1,0-.19-.04-.27-.1-.08-.07-.12-.15-.15-.25-.02-.1,0-.19.05-.24s.13-.08.24-.08c.2.02.38.02.53.03.15,0,.28,0,.39,0,.08,0,.15,0,.21-.02.05-.01.1-.04.15-.07.07-.06.13-.18.18-.35s.1-.42.15-.74.09-.72.13-1.21c0-.08-.03-.11-.1-.11h-2.6v-.69h3.03c.12,0,.22.04.3.12.08.08.12.18.12.31v.26ZM42.64,42.9c.09.03.17.1.22.19.04.08.08.15.12.22.04.08.07.15.09.21.05.1.06.2.02.29-.04.1-.11.17-.21.21h-.02c-.1.05-.2.05-.29.01-.09-.04-.15-.11-.2-.21-.04-.09-.07-.17-.1-.23s-.07-.14-.12-.24c-.04-.09-.05-.18-.02-.27s.1-.15.21-.19c.1-.04.21-.04.3,0Z"/>
    <path class="cls-1" d="M50.34,45.76c.09,0,.17.03.23.09.06.06.09.14.09.24s-.03.17-.09.24c-.06.06-.14.09-.23.09h-3.47c-.1,0-.18-.03-.24-.09-.06-.06-.09-.14-.09-.24s.03-.17.09-.23c.06-.06.14-.09.24-.09h3.47ZM48.15,45.92c0,.47-.02.92-.06,1.34-.04.42-.12.83-.25,1.21-.13.38-.32.75-.59,1.11-.07.08-.14.12-.24.13-.09,0-.18-.03-.27-.1-.08-.08-.11-.16-.12-.25s.02-.18.08-.27c.23-.31.4-.63.51-.96.11-.33.18-.68.21-1.04.03-.37.05-.75.05-1.16v-2.46h.67v2.46ZM50.24,43.29c.1,0,.18.03.24.09s.09.14.09.24-.03.18-.09.24-.14.09-.24.09h-3.24c-.1,0-.17-.03-.24-.09-.06-.06-.09-.14-.09-.24s.03-.18.09-.24c.06-.06.14-.09.24-.09h3.24ZM49.89,43.47v5.98c0,.1-.03.18-.09.24-.06.06-.15.09-.26.09-.1,0-.18-.03-.25-.09-.07-.06-.1-.14-.1-.24v-5.98h.7ZM53.4,47.34c.03.08.01.17-.04.25-.16.23-.32.44-.49.62-.17.19-.34.36-.52.52-.19.16-.38.31-.6.45-.21.14-.44.28-.69.41-.09.06-.2.08-.3.06s-.2-.08-.27-.16c-.07-.08-.1-.17-.08-.25.02-.08.07-.15.17-.2.24-.11.46-.23.65-.35.2-.12.38-.24.55-.38s.33-.28.48-.45.29-.34.43-.54c.07-.08.15-.14.24-.18.1-.03.2-.03.3,0,.09.04.16.1.19.18ZM53.05,43.27c.02.08,0,.16-.08.24-.13.15-.26.28-.38.4s-.25.23-.38.33c-.13.1-.26.2-.4.3-.14.1-.29.2-.46.3-.08.06-.18.08-.29.07-.1-.01-.19-.06-.27-.13-.07-.08-.1-.15-.09-.22,0-.08.06-.14.15-.2.15-.09.3-.18.43-.26.13-.08.25-.17.36-.25.11-.09.22-.18.33-.28s.22-.21.33-.33c.07-.08.16-.14.26-.17s.2-.02.3.03c.1.04.17.1.19.17ZM53.22,45.33c.02.07,0,.15-.08.23-.13.16-.27.3-.4.43-.13.13-.27.25-.41.36-.14.11-.28.22-.43.33s-.31.22-.49.33c-.08.06-.17.08-.27.08s-.19-.05-.27-.13c-.07-.08-.1-.16-.09-.23,0-.07.06-.14.14-.2.17-.09.32-.19.46-.28s.27-.18.4-.28c.13-.1.25-.2.37-.31s.24-.24.36-.37c.07-.07.15-.13.24-.15.09-.03.19-.02.29.02.1.04.16.1.18.17Z"/>
  </g>
</svg>