<?xml version="1.0" encoding="UTF-8"?>
<svg id="_圖層_1" data-name="圖層 1" xmlns="http://www.w3.org/2000/svg" viewBox="0 0 50.06 104.04">
  <defs>
    <style>
      .cls-1 {
        fill: #2b2a28;
      }
    </style>
  </defs>
  <g>
    <path class="cls-1" d="M50.06,86.04H12.21V0h37.85v86.04ZM13.21,85.04h35.85V1H13.21v84.04Z"/>
    <g>
      <path class="cls-1" d="M5.95,46.37c0,.25-.03.5-.1.74-.06.24-.15.45-.27.62-.05.09-.11.15-.18.19-.07.04-.14.05-.21.04-.07,0-.13-.04-.18-.08-.05-.04-.09-.1-.1-.17s0-.15.04-.24c.11-.18.19-.36.24-.54s.07-.35.07-.53c0-.3-.06-.53-.19-.69-.12-.16-.31-.23-.55-.23s-.4.08-.52.23-.17.38-.17.67v.43c0,.24-.11.35-.33.35-.1,0-.18-.03-.24-.09s-.09-.15-.09-.26v-.36c0-.26-.06-.46-.19-.62s-.31-.23-.54-.23c-.21,0-.37.07-.48.21-.11.14-.17.34-.17.61,0,.17.03.33.07.5.05.16.13.32.24.48.04.08.05.15.04.22,0,.07-.04.12-.09.17-.05.04-.11.07-.17.08-.06.01-.13,0-.2-.03-.07-.03-.13-.09-.18-.17-.12-.17-.22-.38-.29-.61-.07-.23-.11-.47-.11-.71,0-.49.11-.86.33-1.13.22-.27.52-.4.92-.4.29,0,.53.08.73.23.2.16.34.37.4.64h-.08c.05-.32.19-.57.4-.75.21-.18.48-.27.8-.27.41,0,.74.15.99.45.24.3.36.71.36,1.23Z"/>
      <path class="cls-1" d="M5.95,42.27c0,.55-.21.97-.63,1.27s-1.02.44-1.8.44-1.39-.15-1.8-.44c-.41-.29-.62-.71-.62-1.27s.2-.98.61-1.27c.41-.29,1.01-.43,1.79-.43s1.39.15,1.81.44c.42.29.63.71.63,1.27ZM5.28,42.27c0-.31-.14-.54-.43-.7s-.73-.23-1.34-.23-1.05.08-1.33.23-.41.39-.41.7.14.54.41.69c.28.15.72.23,1.32.23s1.05-.08,1.34-.23.43-.38.43-.69Z"/>
      <path class="cls-1" d="M5.95,38.33c0,.34-.07.64-.21.89s-.34.44-.59.58-.56.2-.91.2-.65-.07-.9-.2-.44-.33-.58-.58-.2-.55-.2-.89c0-.15.02-.3.06-.46.04-.16.11-.31.21-.45.03-.07.08-.12.13-.14s.12-.03.18-.02c.07,0,.12.03.17.07.05.04.08.08.09.14.01.06,0,.13-.04.2-.07.09-.12.19-.15.3-.03.11-.04.21-.04.3,0,.3.09.53.28.69.18.16.45.24.79.24s.61-.08.8-.24c.19-.16.29-.39.29-.69,0-.1-.01-.2-.04-.3-.03-.1-.08-.2-.15-.3-.04-.07-.05-.14-.04-.2.02-.06.05-.11.09-.14.05-.04.1-.06.16-.07s.12,0,.18.03.11.08.14.14c.1.14.17.29.21.45.04.16.06.31.06.45Z"/>
      <path class="cls-1" d="M5.93,36.27c0,.26-.13.39-.4.39h-2.57c-.26,0-.39-.13-.39-.39,0-.12.03-.21.1-.28s.16-.1.3-.1h.51c-.06.02-.12.05-.18.07-.23-.09-.41-.23-.54-.41-.13-.19-.19-.41-.19-.67s.06-.48.19-.65c.13-.17.32-.29.58-.35v.09c-.24-.09-.42-.24-.56-.44-.14-.2-.21-.44-.21-.71,0-.37.11-.65.33-.83s.55-.27,1.01-.27h1.64c.12,0,.22.04.29.1.07.07.11.17.11.3,0,.26-.13.39-.4.39h-1.62c-.26,0-.45.04-.56.13-.12.09-.18.23-.18.43,0,.23.08.41.24.54.16.13.38.19.65.19h1.47c.12,0,.22.03.29.1s.11.17.11.29-.04.23-.11.29c-.07.07-.17.1-.29.1h-1.62c-.26,0-.45.04-.56.13-.12.09-.18.23-.18.43,0,.23.08.4.24.53s.38.19.65.19h1.47c.27,0,.4.13.4.4Z"/>
    </g>
    <g>
      <path class="cls-1" d="M25.07,97.07c-.13,0-.23-.04-.3-.11-.07-.07-.1-.17-.1-.31v-3.71h.39c-.14.09-.27.17-.37.24-.11.07-.21.14-.31.21s-.23.15-.38.25c-.08.05-.16.07-.23.06s-.13-.04-.18-.08c-.05-.05-.08-.1-.1-.17-.02-.06,0-.13.02-.2.03-.07.08-.13.16-.19.14-.09.26-.17.37-.24s.21-.13.31-.2c.1-.07.22-.15.37-.24.07-.04.14-.08.2-.1.06-.02.13-.03.21-.03.12,0,.21.03.27.09s.1.15.1.26v4.05c0,.28-.14.41-.41.41Z"/>
      <path class="cls-1" d="M28.55,97.08c-.25,0-.5-.03-.74-.1-.24-.06-.45-.15-.62-.27-.09-.05-.15-.11-.19-.18-.04-.07-.05-.14-.04-.21s.04-.13.08-.18c.04-.05.1-.09.17-.1s.15,0,.24.04c.18.11.36.19.54.24s.35.07.53.07c.3,0,.53-.06.69-.19.16-.12.23-.31.23-.55s-.08-.4-.23-.52-.38-.17-.67-.17h-.43c-.24,0-.35-.11-.35-.33,0-.1.03-.18.09-.24.06-.06.15-.09.26-.09h.36c.26,0,.46-.06.62-.19.15-.13.23-.31.23-.53,0-.21-.07-.37-.21-.48-.14-.11-.34-.17-.61-.17-.17,0-.33.03-.5.07-.16.05-.32.13-.48.24-.08.04-.15.05-.22.04-.07-.01-.12-.04-.17-.09-.04-.05-.07-.11-.08-.17-.01-.06,0-.13.03-.2.03-.07.09-.13.17-.18.17-.12.38-.22.61-.29.23-.07.47-.11.71-.11.49,0,.86.11,1.13.33.27.22.4.52.4.92,0,.29-.08.53-.23.73-.16.2-.37.34-.64.4v-.08c.32.05.57.19.75.4.18.21.27.48.27.8,0,.41-.15.74-.45.99-.3.24-.71.36-1.23.36Z"/>
      <path class="cls-1" d="M32.58,97.08c-.34,0-.64-.07-.89-.21s-.44-.34-.58-.59c-.14-.26-.2-.56-.2-.91s.07-.65.2-.89c.14-.25.33-.44.58-.58s.55-.2.89-.2c.15,0,.3.02.46.06.16.04.31.11.45.21.07.03.12.08.14.13s.03.12.02.18-.03.12-.07.17c-.04.05-.08.08-.14.09-.06.01-.13,0-.2-.04-.09-.07-.19-.12-.3-.15-.11-.03-.21-.04-.3-.04-.3,0-.53.09-.69.28-.16.18-.24.45-.24.79s.08.6.24.8c.16.19.39.29.69.29.1,0,.2-.01.3-.04.1-.03.2-.08.3-.15.07-.04.14-.05.2-.04.06.02.11.05.14.09.04.05.06.1.07.16s0,.12-.03.18c-.03.06-.08.11-.14.14-.14.1-.29.17-.45.21s-.31.06-.45.06Z"/>
      <path class="cls-1" d="M34.64,97.07c-.26,0-.39-.13-.39-.4v-2.57c0-.26.13-.39.39-.39.12,0,.21.03.28.1s.1.16.1.3v.51c-.02-.06-.05-.12-.07-.18.09-.23.23-.41.41-.54.19-.13.41-.19.67-.19s.48.06.65.19c.17.13.29.32.35.58h-.09c.09-.24.24-.42.44-.56.2-.14.44-.21.71-.21.37,0,.65.11.83.33.18.22.27.55.27,1.01v1.64c0,.12-.04.22-.1.29-.07.07-.17.11-.3.11-.26,0-.39-.13-.39-.4v-1.62c0-.26-.04-.45-.13-.56s-.23-.18-.43-.18c-.23,0-.41.08-.54.24-.13.16-.19.38-.19.65v1.47c0,.12-.03.22-.1.29-.07.07-.17.11-.29.11s-.23-.04-.29-.11c-.07-.07-.1-.17-.1-.29v-1.62c0-.26-.04-.45-.13-.56s-.23-.18-.43-.18c-.23,0-.4.08-.53.24-.13.16-.19.38-.19.65v1.47c0,.27-.13.4-.4.4Z"/>
    </g>
    <g>
      <path class="cls-1" d="M10.6,1h-4.14c-.28,0-.5-.22-.5-.5S6.18,0,6.45,0h4.14c.28,0,.5.22.5.5s-.22.5-.5.5Z"/>
      <path class="cls-1" d="M10.6,86.04h-4.14c-.28,0-.5-.22-.5-.5s.22-.5.5-.5h4.14c.28,0,.5.22.5.5s-.22.5-.5.5Z"/>
      <path class="cls-1" d="M8.53,86.04c-.28,0-.5-.22-.5-.5V.5C8.03.22,8.25,0,8.53,0s.5.22.5.5v85.04c0,.28-.22.5-.5.5Z"/>
    </g>
    <g>
      <path class="cls-1" d="M12.7,92.44c-.28,0-.5-.22-.5-.5v-4.14c0-.28.22-.5.5-.5s.5.22.5.5v4.14c0,.28-.22.5-.5.5Z"/>
      <path class="cls-1" d="M49.56,92.44c-.28,0-.5-.22-.5-.5v-4.14c0-.28.22-.5.5-.5s.5.22.5.5v4.14c0,.28-.22.5-.5.5Z"/>
      <path class="cls-1" d="M49.56,90.37H12.7c-.28,0-.5-.22-.5-.5s.22-.5.5-.5h36.86c.28,0,.5.22.5.5s-.22.5-.5.5Z"/>
    </g>
  </g>
  <g>
    <path class="cls-1" d="M24.07,42.84c.06-.06.13-.09.22-.09h6.2c.09,0,.17.03.23.09.06.06.09.14.09.24,0,.09-.03.17-.09.22-.06.06-.13.09-.23.09h-6.2c-.09,0-.16-.03-.22-.09-.06-.06-.09-.14-.09-.24,0-.09.03-.17.09-.23ZM24.27,37.38c.05-.06.13-.09.22-.09h5.8c.09,0,.17.03.22.09.06.06.08.14.08.24,0,.09-.03.16-.08.22-.05.05-.13.08-.22.08h-5.8c-.09,0-.17-.03-.22-.09-.06-.06-.08-.13-.08-.22,0-.09.03-.17.08-.23ZM25.17,38.56c.09-.09.2-.13.33-.13h3.86c.13,0,.24.04.32.13.08.09.13.2.13.33v3.8c0,.1-.03.18-.1.25s-.15.1-.26.1-.19-.03-.26-.1-.1-.15-.1-.25v-3.48s-.02-.09-.05-.13c-.03-.04-.07-.05-.12-.05h-3c-.05,0-.1.02-.13.05s-.05.08-.05.13v3.49c0,.1-.03.19-.09.25-.06.06-.15.09-.25.09s-.18-.03-.25-.09c-.06-.06-.1-.15-.1-.25v-3.81c0-.13.04-.24.13-.33ZM26.18,39.54h3.3v.56h-4.11v-.56h.81ZM26.18,40.6h3.3v.56h-4.11v-.56h.81ZM26.21,41.66h3.3v.56h-4.11v-.56h.81ZM27.11,36.81c.07-.07.16-.11.27-.11s.21.04.28.11c.07.07.11.16.11.27v1.69h-.77v-1.69c0-.1.04-.19.11-.27Z"/>
    <path class="cls-1" d="M34.76,40.59c.08,0,.16.03.21.08.05.06.08.13.08.22,0,.08-.03.15-.08.21-.05.06-.12.08-.21.08h-3.07c-.08,0-.16-.03-.21-.08-.05-.05-.08-.13-.08-.22,0-.08.03-.15.08-.21.05-.05.12-.08.21-.08h3.07ZM32.42,41.57c.04.06.05.14.03.22-.04.12-.08.25-.13.39s-.11.28-.18.41-.12.23-.17.31c-.04.08-.1.13-.18.15s-.16.01-.25-.03c-.08-.04-.12-.1-.14-.17-.02-.07,0-.14.03-.22.06-.08.12-.17.17-.28s.1-.22.14-.34c.04-.12.08-.23.11-.33.02-.08.06-.15.12-.19.06-.04.14-.06.24-.04.09.02.16.06.2.12ZM34.69,37.36c.08,0,.15.03.21.08.05.05.08.12.08.21s-.03.16-.08.21c-.06.05-.12.08-.21.08h-2.91c-.08,0-.15-.03-.21-.08s-.08-.13-.08-.22c0-.08.03-.15.08-.21s.12-.08.21-.08h2.91ZM34.52,38.48c.09,0,.16.03.22.08.06.05.08.12.08.21,0,.08-.03.15-.08.21s-.13.08-.22.08h-2.55c-.09,0-.16-.03-.22-.08-.05-.06-.08-.12-.08-.21,0-.09.03-.16.08-.21.05-.05.13-.08.22-.08h2.55ZM34.46,39.53c.09,0,.16.03.21.08.05.05.08.13.08.22,0,.08-.03.15-.08.21s-.12.08-.21.08h-2.43c-.08,0-.16-.03-.21-.08-.05-.05-.08-.12-.08-.21,0-.08.03-.16.08-.21s.12-.08.21-.08h2.43ZM33.58,42.96c0,.16-.02.28-.05.37s-.11.16-.21.21-.21.08-.3.09c-.1,0-.23.01-.4.02-.09,0-.17-.02-.24-.07-.07-.06-.11-.13-.12-.23h0c-.01-.1,0-.17.04-.22.04-.05.11-.08.2-.08h.31c.07,0,.1-.03.1-.1v-2.1h.67v2.11ZM33.48,36.82c.06.06.09.14.09.24v1.8h-.67v-1.8c0-.09.03-.17.09-.24s.15-.09.25-.09c.09,0,.17.03.23.09ZM34.41,41.48c.07.03.13.08.16.15.06.11.12.21.17.3.05.09.09.17.13.25.03.08.03.16-.01.24-.04.08-.1.14-.18.18-.08.04-.15.04-.22.01-.07-.03-.11-.09-.13-.18-.04-.09-.08-.19-.13-.29-.05-.09-.1-.19-.17-.3-.03-.08-.03-.15,0-.22.03-.06.08-.12.17-.15.08-.03.15-.03.22,0ZM36.87,39.62c0,.13,0,.3.03.49.02.19.06.4.11.63.05.23.13.47.22.71s.22.48.37.71.34.44.55.64c.08.08.12.16.13.26.01.1-.01.2-.08.29-.06.09-.14.14-.23.15-.09.01-.18-.02-.25-.1-.2-.18-.37-.39-.51-.61s-.26-.44-.35-.67c-.09-.22-.17-.44-.22-.65s-.09-.39-.11-.54c-.03.16-.07.34-.13.55-.06.21-.14.43-.25.65-.11.22-.25.45-.41.67-.17.22-.37.43-.6.62-.07.08-.16.1-.25.09s-.17-.07-.23-.16c-.05-.08-.07-.17-.06-.26s.06-.17.13-.24c.25-.19.46-.41.63-.64.17-.24.31-.47.42-.72.11-.24.19-.48.25-.72s.1-.45.12-.65.03-.37.03-.5v-1.31h.69v1.31ZM36.16,36.87c.05.07.07.16.06.27-.04.3-.09.57-.14.82-.05.25-.11.48-.17.7s-.13.42-.21.62-.17.4-.27.6c-.04.1-.11.16-.2.18s-.18,0-.27-.08c-.09-.06-.14-.14-.16-.24-.02-.09,0-.19.04-.29.09-.18.18-.36.24-.54.07-.18.13-.36.18-.55s.09-.39.13-.61.08-.46.12-.73c.01-.1.06-.18.13-.24s.16-.07.27-.05c.11.02.18.06.24.13ZM38.23,38.7c-.03.17-.06.33-.09.47-.03.14-.05.27-.08.38-.03.11-.05.23-.08.34-.02.08-.06.14-.12.17-.07.04-.14.04-.22.01-.08-.02-.15-.06-.19-.13s-.05-.14-.04-.23c.03-.08.05-.17.06-.27s.04-.21.06-.33c.02-.11.04-.22.04-.32,0-.07-.03-.11-.1-.11h-1.85v-.64h2.19c.12,0,.22.04.3.12.08.08.12.18.12.3v.22Z"/>
  </g>
</svg>